<?xml version="1.0" encoding="utf-8"?>
<!-- Generator: Adobe Illustrator 19.2.1, SVG Export Plug-In . SVG Version: 6.00 Build 0)  -->
<svg version="1.1" id="Layer_1" xmlns="http://www.w3.org/2000/svg" xmlns:xlink="http://www.w3.org/1999/xlink" x="0px" y="0px"
	 viewBox="0 0 168 34" style="enable-background:new 0 0 168 34;" xml:space="preserve">
<g>
	<g>
		<path d="M19.9,18.5v-3.2c0-2.6,1.1-3.3,3.8-3.3c1.8,0,3,0.4,4,0.9V8.5c-1-0.4-2.3-0.9-4.1-0.9c-5.5,0-8.3,3-8.3,7.6v3.4
			c0,4.9,2.6,7.6,8.5,7.6c1.7,0,2.9-0.4,4.3-0.8v-4.3c-1.3,0.4-2.5,0.7-4,0.7C21.1,21.9,19.9,21.1,19.9,18.5z M36.4,7.7
			c-1.8,0-3.5,0.2-4.7,0.6v4c1-0.4,2.9-0.7,5-0.7c2.2,0,3.6,0.3,3.6,2.2v1.3h-3.5c-4.1,0-7.1,1.4-7.1,5.5c0,3.7,2.2,5.6,7.6,5.6
			c5.4,0,7.6-1.9,7.6-5.7v-6.8C44.9,9.1,41.6,7.7,36.4,7.7z M40.4,20.3c0,2-1.5,2.1-3.1,2.1c-1.6,0-3-0.1-3-1.8
			c0-1.3,0.8-1.9,2.5-1.9h3.6V20.3z M48,14.1v11.7h4.6V14.5c0-1.6,0.4-2.4,2.7-2.4c0.9,0,1.7,0.1,2.2,0.3V7.9
			c-0.7-0.2-1.2-0.3-2.2-0.3C50.4,7.7,48,9.9,48,14.1z M69.1,7.7c-2.4,0-3.9,0.8-4.8,2V1h-4.5v17.5c0,5.6,3.7,7.8,8.3,7.8
			c5.2,0,8.3-2.2,8.3-7.8v-2.8C76.4,10.6,74,7.7,69.1,7.7z M71.9,18.4c0,2.3-0.5,3.5-3.7,3.5c-3.1,0-3.8-1.2-3.8-3.5v-2.8
			c0-2.3,0.7-3.5,3.8-3.5c3.1,0,3.7,1.2,3.7,3.5V18.4z M87.5,7.7c-5.4,0-8.4,2.8-8.4,7.9v2.8c0,5.2,2.6,7.9,8.4,7.9
			c5.4,0,8.3-2.8,8.3-7.9v-2.8C95.8,10.3,93.2,7.7,87.5,7.7z M91.2,18.4c0,2.3-0.6,3.5-3.7,3.5c-3.1,0-3.8-1.2-3.8-3.5v-2.8
			c0-2.3,0.7-3.5,3.8-3.5c3.1,0,3.7,1.2,3.7,3.5V18.4z M106.8,7.7c-5.3,0-7.9,2.5-7.9,7.2v11h4.6v-11c0-1.8,0.5-2.8,3.4-2.8
			c2.9,0,3.3,1,3.3,2.8v11h4.6v-11C114.7,10.1,112.3,7.7,106.8,7.7z M120.6,7.6c-1.5,0-2.7,1.2-2.7,2.8c0,1.5,1.2,2.8,2.7,2.8
			c1.5,0,2.7-1.3,2.7-2.8C123.3,8.9,122.1,7.6,120.6,7.6z M120.6,20.7c-1.5,0-2.7,1.2-2.7,2.8c0,1.5,1.2,2.8,2.7,2.8
			c1.5,0,2.7-1.2,2.7-2.8C123.3,22,122.1,20.7,120.6,20.7z M126.8,25.8h4.5V8.1h-4.5V25.8z M129.1,0c-1.5,0-2.7,1.2-2.7,2.8
			c0,1.5,1.2,2.8,2.7,2.8c1.5,0,2.7-1.3,2.7-2.8C131.8,1.3,130.6,0,129.1,0z M143.2,7.7c-5.4,0-8.4,2.8-8.4,7.9v2.8
			c0,5.2,2.6,7.9,8.4,7.9c5.4,0,8.3-2.8,8.3-7.9v-2.8C151.5,10.3,148.9,7.7,143.2,7.7z M146.9,18.4c0,2.3-0.6,3.5-3.7,3.5
			c-3.1,0-3.8-1.2-3.8-3.5v-2.8c0-2.3,0.7-3.5,3.8-3.5c3.1,0,3.7,1.2,3.7,3.5V18.4z M165.8,14.8c-1.9,0-2.9-2-2.9-5.1V7.4
			c0-4.6-2.6-7.1-6.4-7.1h-2.1v3.8h1.6c1.9,0,2.7,1.3,2.7,4.1v2.2c0,2.4,0.6,5,2.9,6.3c-2.3,1.2-2.9,3.8-2.9,6.3v2.9
			c0,2.8-0.8,4.1-2.7,4.1h-1.6v3.8h2.1c3.7,0,6.4-2.5,6.4-7.1v-3c0-3.1,1-5.1,2.9-5.1h1.1v-3.8H165.8z M4,7.4v2.3
			c0,3.1-1,5.1-2.9,5.1H0v3.8h1.1C3,18.6,4,20.5,4,23.7v3c0,4.6,2.7,7.1,6.4,7.1h2.1V30h-1.6c-1.9,0-2.7-1.3-2.7-4.1V23
			c0-2.5-0.6-5.2-2.9-6.3c2.4-1.3,2.9-3.9,2.9-6.3V8.2c0-2.8,0.8-4.1,2.7-4.1h1.6V0.3h-2.1C6.6,0.3,4,2.7,4,7.4z"/>
	</g>
</g>
</svg>
