<?xml version="1.0" encoding="utf-8"?>
<!-- Generator: Adobe Illustrator 19.2.1, SVG Export Plug-In . SVG Version: 6.00 Build 0)  -->
<svg version="1.1" id="Layer_1" xmlns="http://www.w3.org/2000/svg" xmlns:xlink="http://www.w3.org/1999/xlink" x="0px" y="0px"
	 viewBox="0 0 16 16" style="enable-background:new 0 0 16 16;" xml:space="preserve">
<path d="M15.6,13.7l-3.8-3.8c0,0-0.1-0.1-0.1-0.1c0.6-1,1-2.2,1-3.4C12.7,2.8,9.8,0,6.3,0C2.8,0,0,2.8,0,6.3c0,3.5,2.8,6.3,6.3,6.3
	c1.3,0,2.5-0.4,3.4-1c0,0,0.1,0.1,0.1,0.1l3.8,3.8c0.3,0.3,0.6,0.4,0.9,0.4c0.3,0,0.7-0.1,0.9-0.4C16.1,15.1,16.1,14.2,15.6,13.7z
	 M6.3,10.7C4,10.7,2,8.7,2,6.3C2,3.9,4,2,6.3,2c2.4,0,4.3,1.9,4.3,4.3C10.7,8.7,8.7,10.7,6.3,10.7z"/>
</svg>
